<svg width="957" height="269" viewBox="0 0 957 269" fill="none" xmlns="http://www.w3.org/2000/svg">
<rect x="5" y="5" width="947" height="259" rx="45" fill="black" stroke="white" stroke-width="10"/>
<path d="M57.5 246.5V31.5L244 138.5L57.5 246.5Z" stroke="black"/>
<path d="M56.3279 33.6357C54.2199 34.1819 52.7295 36.0041 52.7295 39.138C52.7295 48.3357 52.7295 135.071 52.7295 135.071C52.7295 135.071 52.7295 228.804 52.7295 232.943C52.7295 235.22 53.735 236.746 55.2816 237.312L158.289 134.902L56.3279 33.6357Z" fill="#4DB6AC"/>
<path d="M186.647 106.712L144.246 82.2325C144.246 82.2325 66.4334 37.3005 61.8601 34.6616C59.8796 33.5183 57.9299 33.2172 56.3271 33.6357L158.293 134.902L186.647 106.712Z" fill="#DCE775"/>
<path d="M59.9618 236.572C62.6772 235 137.974 191.528 186.877 163.292L158.288 134.902L55.2812 237.312C56.5471 237.777 58.1702 237.603 59.9618 236.572Z" fill="#D32F2F"/>
<path d="M228.302 130.759C224.239 128.569 186.958 106.892 186.958 106.892L186.647 106.713L158.288 134.903L186.877 163.293C209.498 150.231 226.49 140.426 228.011 139.543C232.829 136.766 232.365 132.948 228.302 130.759Z" fill="#FBC02D"/>
<path d="M337.256 173.514V160.269H381.455C381.908 162.602 382.17 165.377 382.17 168.389C382.17 178.32 379.46 190.617 370.736 199.373C362.251 208.242 351.41 212.965 337.027 212.965C310.395 212.97 288 191.215 288 164.489C288 137.76 310.395 116 337.027 116C351.76 116 362.251 121.797 370.147 129.363L360.836 138.708C355.175 133.384 347.515 129.245 337.027 129.245C317.576 129.245 302.368 144.971 302.368 164.484C302.368 183.997 317.579 199.728 337.027 199.728C349.636 199.728 356.823 194.637 361.423 190.03C365.167 186.274 367.633 180.884 368.589 173.514H337.256ZM449.521 181.752C449.521 199.723 435.492 212.97 418.283 212.97C401.074 212.97 387.056 199.728 387.056 181.752C387.056 163.661 401.082 150.529 418.283 150.529C435.495 150.529 449.521 163.651 449.521 181.752ZM435.847 181.755C435.847 170.518 427.719 162.833 418.283 162.833C408.857 162.833 400.72 170.518 400.72 181.755C400.72 192.871 408.857 200.671 418.283 200.671C427.709 200.671 435.847 192.871 435.847 181.75V181.755ZM517.657 181.755C517.657 199.725 503.631 212.973 486.422 212.973C469.213 212.973 455.192 199.73 455.192 181.755C455.192 163.664 469.218 150.532 486.427 150.532C503.636 150.532 517.662 163.656 517.662 181.757L517.657 181.755ZM503.986 181.755C503.986 170.518 495.85 162.833 486.422 162.833C476.996 162.833 468.858 170.518 468.858 181.755C468.858 192.871 476.988 200.671 486.422 200.671C495.85 200.671 503.986 192.871 503.986 181.75V181.755ZM582.967 152.424V208.479C582.967 231.542 569.409 241 553.383 241C538.293 241 529.216 230.827 525.804 222.552L537.706 217.582C539.83 222.672 545.014 228.704 553.383 228.704C563.639 228.704 569.998 222.318 569.998 210.371V205.874H569.53C566.468 209.656 560.572 212.97 553.144 212.97C537.586 212.97 523.326 199.37 523.326 181.87C523.326 164.245 537.586 150.532 553.144 150.532C560.569 150.532 566.468 153.84 569.53 157.512H569.998V152.424H582.967ZM570.947 181.87C570.947 170.87 563.639 162.828 554.326 162.828C544.898 162.828 536.997 170.87 536.997 181.87C536.997 192.75 544.898 200.671 554.326 200.671C563.637 200.671 570.941 192.75 570.941 181.87H570.947ZM606.124 119.621V211.078H592.451V119.618L606.124 119.621ZM658.923 192.041L669.527 199.136C666.11 204.219 657.859 212.975 643.599 212.975C625.917 212.975 612.712 199.254 612.712 181.75C612.712 163.183 626.036 150.532 642.067 150.532C658.214 150.532 666.11 163.422 668.704 170.402L670.113 173.945L628.509 191.213C631.692 197.486 636.647 200.676 643.599 200.676C650.552 200.676 655.386 197.239 658.923 192.041ZM626.27 180.809L654.085 169.214C652.557 165.314 647.957 162.597 642.535 162.597C635.582 162.597 625.922 168.741 626.27 180.809ZM900.867 152.864L885.264 192.534H884.796L868.601 152.864H853.931L878.215 208.3L864.366 239.143H878.575L916 152.864H900.867ZM791.164 119.91H777.554V211.397H791.164V119.905V119.91ZM740.122 119.91H707.511V211.397H721.146V176.775H740.157C755.234 176.775 770.075 165.822 770.075 148.363C770.075 130.906 755.209 119.91 740.122 119.91ZM740.484 163.993H721.146V132.692H740.512C744.656 132.692 748.632 134.348 751.563 137.284C754.5 140.228 756.149 144.215 756.149 148.373C756.149 152.53 754.5 156.518 751.563 159.462C750.114 160.917 748.392 162.072 746.495 162.861C744.599 163.649 742.565 164.055 740.512 164.056L740.484 163.993ZM824.608 150.859C814.747 150.859 804.534 155.212 800.316 164.869L812.404 169.936C814.994 164.874 819.802 163.258 824.842 163.258C831.873 163.258 839.034 167.503 839.16 175.039V175.97C834.812 173.634 829.954 172.41 825.019 172.405C811.997 172.405 798.731 179.581 798.731 193.002C798.731 205.243 809.382 213.124 821.367 213.124C830.534 213.124 835.577 209.007 838.68 204.186H839.16V211.236H852.308V176.176C852.308 159.924 840.212 150.864 824.608 150.864V150.859ZM822.968 201.003C818.509 201.003 812.311 198.764 812.311 193.231C812.311 186.176 820.051 183.468 826.747 183.468C831.093 183.349 835.39 184.404 839.185 186.523C838.682 190.491 836.762 194.145 833.78 196.811C830.802 199.47 826.96 200.96 822.968 201.003Z" fill="white"/>
<path d="M325.455 56C324.955 54.4697 324.295 53.0985 323.477 51.8864C322.674 50.6591 321.712 49.6136 320.591 48.75C319.485 47.8864 318.227 47.2273 316.818 46.7727C315.409 46.3182 313.864 46.0909 312.182 46.0909C309.424 46.0909 306.917 46.803 304.659 48.2273C302.402 49.6515 300.606 51.75 299.273 54.5227C297.939 57.2955 297.273 60.697 297.273 64.7273C297.273 68.7576 297.947 72.1591 299.295 74.9318C300.644 77.7045 302.47 79.803 304.773 81.2273C307.076 82.6515 309.667 83.3636 312.545 83.3636C315.212 83.3636 317.561 82.7955 319.591 81.6591C321.636 80.5076 323.227 78.8864 324.364 76.7955C325.515 74.6894 326.091 72.2121 326.091 69.3636L327.818 69.7273H313.818V64.7273H331.545V69.7273C331.545 73.5606 330.727 76.8939 329.091 79.7273C327.47 82.5606 325.227 84.7576 322.364 86.3182C319.515 87.8636 316.242 88.6364 312.545 88.6364C308.424 88.6364 304.803 87.6667 301.682 85.7273C298.576 83.7879 296.152 81.0303 294.409 77.4545C292.682 73.8788 291.818 69.6364 291.818 64.7273C291.818 61.0455 292.311 57.7348 293.295 54.7955C294.295 51.8409 295.705 49.3258 297.523 47.25C299.341 45.1742 301.492 43.5833 303.977 42.4773C306.462 41.3712 309.197 40.8182 312.182 40.8182C314.636 40.8182 316.924 41.1894 319.045 41.9318C321.182 42.6591 323.083 43.697 324.75 45.0455C326.432 46.3788 327.833 47.9773 328.955 49.8409C330.076 51.6894 330.848 53.7424 331.273 56H325.455ZM339.279 88V41.4545H367.37V46.4545H344.915V62.1818H365.915V67.1818H344.915V83H367.733V88H339.279ZM373.063 46.4545V41.4545H407.973V46.4545H393.336V88H387.7V46.4545H373.063ZM436.468 41.4545V88H430.831V41.4545H436.468ZM443.303 46.4545V41.4545H478.212V46.4545H463.576V88H457.94V46.4545H443.303ZM540.344 64.7273C540.344 69.6364 539.458 73.8788 537.685 77.4545C535.912 81.0303 533.48 83.7879 530.39 85.7273C527.299 87.6667 523.768 88.6364 519.799 88.6364C515.829 88.6364 512.299 87.6667 509.208 85.7273C506.117 83.7879 503.685 81.0303 501.912 77.4545C500.14 73.8788 499.253 69.6364 499.253 64.7273C499.253 59.8182 500.14 55.5758 501.912 52C503.685 48.4242 506.117 45.6667 509.208 43.7273C512.299 41.7879 515.829 40.8182 519.799 40.8182C523.768 40.8182 527.299 41.7879 530.39 43.7273C533.48 45.6667 535.912 48.4242 537.685 52C539.458 55.5758 540.344 59.8182 540.344 64.7273ZM534.89 64.7273C534.89 60.697 534.215 57.2955 532.867 54.5227C531.533 51.75 529.723 49.6515 527.435 48.2273C525.162 46.803 522.617 46.0909 519.799 46.0909C516.98 46.0909 514.427 46.803 512.14 48.2273C509.867 49.6515 508.056 51.75 506.708 54.5227C505.374 57.2955 504.708 60.697 504.708 64.7273C504.708 68.7576 505.374 72.1591 506.708 74.9318C508.056 77.7045 509.867 79.803 512.14 81.2273C514.427 82.6515 516.98 83.3636 519.799 83.3636C522.617 83.3636 525.162 82.6515 527.435 81.2273C529.723 79.803 531.533 77.7045 532.867 74.9318C534.215 72.1591 534.89 68.7576 534.89 64.7273ZM584.81 41.4545V88H579.356L553.992 51.4545H553.538V88H547.901V41.4545H553.356L578.81 78.0909H579.265V41.4545H584.81Z" fill="white"/>
</svg>
