<svg width="957" height="269" viewBox="0 0 957 269" fill="none" xmlns="http://www.w3.org/2000/svg">
<rect x="5" y="5" width="947" height="259" rx="45" fill="black" stroke="white" stroke-width="10"/>
<g clip-path="url(#clip0_168_140)">
<path d="M173.917 216.818C163.276 227.143 151.659 225.513 140.475 220.622C128.64 215.622 117.782 215.405 105.296 220.622C89.661 227.361 81.4091 225.404 72.0715 216.818C19.0858 162.146 26.9034 78.889 87.0551 75.8457C101.713 76.6065 111.919 83.8888 120.497 84.5409C133.309 81.9324 145.578 74.4327 159.259 75.4109C175.654 76.7152 188.032 83.2367 196.175 94.9753C162.299 115.3 170.334 159.972 201.387 172.472C195.198 188.775 187.163 204.97 173.808 216.926L173.917 216.818ZM119.411 75.1936C117.782 50.9555 137.435 30.9564 160.019 29C163.168 57.0422 134.612 77.9108 119.411 75.1936Z" fill="#FCFFFD"/>
</g>
<path d="M279.438 82H262.605V27.4545H280.183C285.474 27.4545 290.002 28.5465 293.766 30.7305C297.531 32.8967 300.416 36.0128 302.422 40.0788C304.429 44.1271 305.432 48.9744 305.432 54.6207C305.432 60.3026 304.42 65.1942 302.396 69.2958C300.371 73.3796 297.424 76.5224 293.553 78.7241C289.683 80.908 284.977 82 279.438 82ZM269.21 76.1406H279.011C283.521 76.1406 287.259 75.2706 290.224 73.5305C293.189 71.7905 295.4 69.3136 296.856 66.0998C298.312 62.886 299.04 59.0597 299.04 54.6207C299.04 50.2173 298.321 46.4265 296.882 43.2482C295.444 40.0522 293.296 37.6019 290.437 35.8974C287.578 34.1751 284.018 33.3139 279.757 33.3139H269.21V76.1406ZM333.028 82.8523C329.335 82.8523 326.095 81.9734 323.307 80.2156C320.537 78.4577 318.371 75.9986 316.809 72.8381C315.264 69.6776 314.491 65.9844 314.491 61.7585C314.491 57.4972 315.264 53.7773 316.809 50.5991C318.371 47.4208 320.537 44.9528 323.307 43.195C326.095 41.4371 329.335 40.5582 333.028 40.5582C336.722 40.5582 339.953 41.4371 342.723 43.195C345.511 44.9528 347.677 47.4208 349.222 50.5991C350.784 53.7773 351.565 57.4972 351.565 61.7585C351.565 65.9844 350.784 69.6776 349.222 72.8381C347.677 75.9986 345.511 78.4577 342.723 80.2156C339.953 81.9734 336.722 82.8523 333.028 82.8523ZM333.028 77.206C335.834 77.206 338.142 76.4869 339.953 75.0487C341.764 73.6104 343.105 71.7195 343.975 69.3757C344.845 67.032 345.28 64.4929 345.28 61.7585C345.28 59.0241 344.845 56.4762 343.975 54.1147C343.105 51.7532 341.764 49.8445 339.953 48.3885C338.142 46.9325 335.834 46.2045 333.028 46.2045C330.223 46.2045 327.915 46.9325 326.104 48.3885C324.293 49.8445 322.952 51.7532 322.082 54.1147C321.212 56.4762 320.777 59.0241 320.777 61.7585C320.777 64.4929 321.212 67.032 322.082 69.3757C322.952 71.7195 324.293 73.6104 326.104 75.0487C327.915 76.4869 330.223 77.206 333.028 77.206ZM369.787 82L357.322 41.0909H363.928L372.77 72.4119H373.196L381.932 41.0909H388.643L397.273 72.3054H397.699L406.541 41.0909H413.146L400.682 82H394.503L385.554 50.5724H384.915L375.966 82H369.787ZM428.491 57.3906V82H422.206V41.0909H428.278V47.483H428.811C429.77 45.4055 431.226 43.7365 433.179 42.4759C435.132 41.1974 437.653 40.5582 440.743 40.5582C443.513 40.5582 445.936 41.1264 448.014 42.2628C450.091 43.3814 451.707 45.0859 452.861 47.3764C454.015 49.6491 454.592 52.5256 454.592 56.0057V82H448.307V56.4318C448.307 53.218 447.472 50.7145 445.803 48.9212C444.134 47.1101 441.844 46.2045 438.932 46.2045C436.925 46.2045 435.132 46.6396 433.552 47.5096C431.989 48.3796 430.755 49.6491 429.85 51.3182C428.944 52.9872 428.491 55.0114 428.491 57.3906ZM473.114 27.4545V82H466.828V27.4545H473.114ZM501.995 82.8523C498.302 82.8523 495.062 81.9734 492.274 80.2156C489.504 78.4577 487.338 75.9986 485.775 72.8381C484.231 69.6776 483.458 65.9844 483.458 61.7585C483.458 57.4972 484.231 53.7773 485.775 50.5991C487.338 47.4208 489.504 44.9528 492.274 43.195C495.062 41.4371 498.302 40.5582 501.995 40.5582C505.688 40.5582 508.92 41.4371 511.69 43.195C514.477 44.9528 516.644 47.4208 518.188 50.5991C519.751 53.7773 520.532 57.4972 520.532 61.7585C520.532 65.9844 519.751 69.6776 518.188 72.8381C516.644 75.9986 514.477 78.4577 511.69 80.2156C508.92 81.9734 505.688 82.8523 501.995 82.8523ZM501.995 77.206C504.801 77.206 507.109 76.4869 508.92 75.0487C510.731 73.6104 512.072 71.7195 512.942 69.3757C513.812 67.032 514.247 64.4929 514.247 61.7585C514.247 59.0241 513.812 56.4762 512.942 54.1147C512.072 51.7532 510.731 49.8445 508.92 48.3885C507.109 46.9325 504.801 46.2045 501.995 46.2045C499.19 46.2045 496.882 46.9325 495.07 48.3885C493.259 49.8445 491.919 51.7532 491.049 54.1147C490.179 56.4762 489.744 59.0241 489.744 61.7585C489.744 64.4929 490.179 67.032 491.049 69.3757C491.919 71.7195 493.259 73.6104 495.07 75.0487C496.882 76.4869 499.19 77.206 501.995 77.206ZM542.915 82.9588C540.323 82.9588 537.97 82.4705 535.857 81.494C533.744 80.4996 532.066 79.0703 530.824 77.206C529.581 75.3239 528.959 73.0511 528.959 70.3878C528.959 68.044 529.421 66.1442 530.344 64.6882C531.267 63.2145 532.502 62.0604 534.046 61.2259C535.591 60.3913 537.296 59.7699 539.16 59.3615C541.042 58.9354 542.933 58.598 544.833 58.3494C547.319 58.0298 549.334 57.7901 550.879 57.6303C552.441 57.4528 553.578 57.1598 554.288 56.7514C555.016 56.343 555.38 55.6328 555.38 54.6207V54.4077C555.38 51.7798 554.661 49.7379 553.222 48.282C551.802 46.826 549.645 46.098 546.75 46.098C543.75 46.098 541.397 46.755 539.693 48.0689C537.988 49.3828 536.79 50.7855 536.097 52.277L530.131 50.1463C531.196 47.6605 532.617 45.7251 534.392 44.3402C536.186 42.9375 538.139 41.9609 540.252 41.4105C542.383 40.8423 544.478 40.5582 546.537 40.5582C547.851 40.5582 549.361 40.718 551.065 41.0376C552.787 41.3395 554.448 41.9698 556.046 42.9286C557.661 43.8874 559.002 45.3345 560.067 47.2699C561.133 49.2053 561.665 51.7976 561.665 55.0469V82H555.38V76.4602H555.06C554.634 77.348 553.924 78.2979 552.929 79.31C551.935 80.3221 550.612 81.1832 548.961 81.8935C547.31 82.6037 545.294 82.9588 542.915 82.9588ZM543.874 77.3125C546.36 77.3125 548.455 76.8242 550.16 75.8477C551.882 74.8711 553.178 73.6104 554.048 72.0657C554.936 70.521 555.38 68.8963 555.38 67.1918V61.4389C555.113 61.7585 554.527 62.0515 553.622 62.3178C552.734 62.5664 551.704 62.7884 550.532 62.9837C549.378 63.1612 548.251 63.321 547.15 63.4631C546.067 63.5874 545.188 63.6939 544.513 63.7827C542.88 63.9957 541.353 64.342 539.932 64.8214C538.53 65.283 537.393 65.9844 536.523 66.9254C535.671 67.8487 535.245 69.1094 535.245 70.7074C535.245 72.8913 536.053 74.5426 537.668 75.6612C539.302 76.7621 541.37 77.3125 543.874 77.3125ZM589.335 82.8523C585.926 82.8523 582.916 81.9911 580.306 80.2688C577.696 78.5288 575.654 76.0785 574.181 72.918C572.707 69.7397 571.97 65.9844 571.97 61.652C571.97 57.3551 572.707 53.6264 574.181 50.4659C575.654 47.3054 577.705 44.864 580.333 43.1417C582.961 41.4194 585.997 40.5582 589.442 40.5582C592.105 40.5582 594.209 41.0021 595.754 41.8899C597.316 42.7599 598.506 43.7543 599.323 44.8729C600.157 45.9737 600.805 46.8793 601.267 47.5895H601.8V27.4545H608.085V82H602.013V75.7145H601.267C600.805 76.4602 600.148 77.4013 599.296 78.5376C598.444 79.6562 597.227 80.6594 595.647 81.5472C594.067 82.4173 591.963 82.8523 589.335 82.8523ZM590.187 77.206C592.709 77.206 594.839 76.549 596.579 75.2351C598.319 73.9034 599.642 72.0657 600.548 69.7219C601.453 67.3604 601.906 64.6349 601.906 61.5455C601.906 58.4915 601.462 55.8192 600.574 53.5288C599.687 51.2205 598.373 49.4272 596.633 48.1488C594.893 46.8526 592.744 46.2045 590.187 46.2045C587.524 46.2045 585.305 46.8881 583.529 48.2553C581.771 49.6048 580.448 51.4425 579.561 53.7685C578.691 56.0767 578.256 58.669 578.256 61.5455C578.256 64.4574 578.699 67.103 579.587 69.4822C580.493 71.8437 581.824 73.7259 583.582 75.1286C585.358 76.5135 587.559 77.206 590.187 77.206ZM659.683 82.8523C655.99 82.8523 652.749 81.9734 649.961 80.2156C647.192 78.4577 645.025 75.9986 643.463 72.8381C641.918 69.6776 641.146 65.9844 641.146 61.7585C641.146 57.4972 641.918 53.7773 643.463 50.5991C645.025 47.4208 647.192 44.9528 649.961 43.195C652.749 41.4371 655.99 40.5582 659.683 40.5582C663.376 40.5582 666.607 41.4371 669.377 43.195C672.165 44.9528 674.331 47.4208 675.876 50.5991C677.438 53.7773 678.22 57.4972 678.22 61.7585C678.22 65.9844 677.438 69.6776 675.876 72.8381C674.331 75.9986 672.165 78.4577 669.377 80.2156C666.607 81.9734 663.376 82.8523 659.683 82.8523ZM659.683 77.206C662.488 77.206 664.796 76.4869 666.607 75.0487C668.419 73.6104 669.759 71.7195 670.629 69.3757C671.499 67.032 671.934 64.4929 671.934 61.7585C671.934 59.0241 671.499 56.4762 670.629 54.1147C669.759 51.7532 668.419 49.8445 666.607 48.3885C664.796 46.9325 662.488 46.2045 659.683 46.2045C656.877 46.2045 654.569 46.9325 652.758 48.3885C650.947 49.8445 649.606 51.7532 648.736 54.1147C647.866 56.4762 647.431 59.0241 647.431 61.7585C647.431 64.4929 647.866 67.032 648.736 69.3757C649.606 71.7195 650.947 73.6104 652.758 75.0487C654.569 76.4869 656.877 77.206 659.683 77.206ZM694.85 57.3906V82H688.564V41.0909H694.637V47.483H695.169C696.128 45.4055 697.584 43.7365 699.537 42.4759C701.491 41.1974 704.012 40.5582 707.101 40.5582C709.871 40.5582 712.295 41.1264 714.372 42.2628C716.45 43.3814 718.065 45.0859 719.22 47.3764C720.374 49.6491 720.951 52.5256 720.951 56.0057V82H714.665V56.4318C714.665 53.218 713.831 50.7145 712.162 48.9212C710.493 47.1101 708.202 46.2045 705.29 46.2045C703.284 46.2045 701.491 46.6396 699.91 47.5096C698.348 48.3796 697.114 49.6491 696.208 51.3182C695.303 52.9872 694.85 55.0114 694.85 57.3906ZM772.821 41.0909V46.4176H751.621V41.0909H772.821ZM757.8 31.2898H764.086V70.2812C764.086 72.0568 764.343 73.3885 764.858 74.2763C765.391 75.1463 766.065 75.7322 766.882 76.0341C767.717 76.3182 768.596 76.4602 769.519 76.4602C770.211 76.4602 770.779 76.4247 771.223 76.3537C771.667 76.2649 772.022 76.1939 772.289 76.1406L773.567 81.7869C773.141 81.9467 772.546 82.1065 771.783 82.2663C771.019 82.4439 770.051 82.5327 768.88 82.5327C767.104 82.5327 765.364 82.1509 763.659 81.3874C761.973 80.6239 760.57 79.4609 759.451 77.8984C758.35 76.3359 757.8 74.3651 757.8 71.9858V31.2898ZM790.191 57.3906V82H783.905V27.4545H790.191V47.483H790.723C791.682 45.37 793.12 43.6921 795.038 42.4492C796.973 41.1886 799.548 40.5582 802.762 40.5582C805.549 40.5582 807.991 41.1175 810.086 42.2361C812.181 43.337 813.806 45.0327 814.96 47.3232C816.132 49.5959 816.718 52.4901 816.718 56.0057V82H810.432V56.4318C810.432 53.1825 809.589 50.6701 807.902 48.8945C806.233 47.1012 803.916 46.2045 800.951 46.2045C798.891 46.2045 797.044 46.6396 795.411 47.5096C793.795 48.3796 792.517 49.6491 791.576 51.3182C790.652 52.9872 790.191 55.0114 790.191 57.3906ZM846.119 82.8523C842.177 82.8523 838.777 81.9822 835.918 80.2422C833.077 78.4844 830.884 76.0341 829.34 72.8913C827.813 69.7308 827.049 66.0554 827.049 61.8651C827.049 57.6747 827.813 53.9815 829.34 50.7855C830.884 47.5717 833.033 45.0682 835.785 43.2749C838.555 41.4638 841.786 40.5582 845.479 40.5582C847.61 40.5582 849.714 40.9134 851.792 41.6236C853.869 42.3338 855.76 43.4879 857.465 45.0859C859.169 46.6662 860.527 48.7614 861.54 51.3714C862.552 53.9815 863.058 57.1953 863.058 61.0128V63.6761H831.524V58.2429H856.666C856.666 55.9347 856.204 53.875 855.281 52.0639C854.375 50.2528 853.079 48.8235 851.392 47.7759C849.723 46.7283 847.752 46.2045 845.479 46.2045C842.976 46.2045 840.81 46.826 838.981 48.0689C837.17 49.294 835.776 50.892 834.799 52.8629C833.823 54.8338 833.335 56.9467 833.335 59.2017V62.8239C833.335 65.9134 833.867 68.5323 834.933 70.6808C836.016 72.8114 837.516 74.4361 839.434 75.5547C841.351 76.6555 843.58 77.206 846.119 77.206C847.77 77.206 849.261 76.9751 850.593 76.5135C851.943 76.0341 853.106 75.3239 854.082 74.3828C855.059 73.424 855.813 72.2344 856.346 70.8139L862.418 72.5185C861.779 74.5781 860.705 76.3892 859.196 77.9517C857.687 79.4964 855.822 80.7038 853.603 81.5739C851.383 82.4261 848.889 82.8523 846.119 82.8523Z" fill="white"/>
<path d="M267.506 217H254.58L291.966 115.182H304.693L342.08 217H329.153L298.727 131.29H297.932L267.506 217ZM272.278 177.227H324.381V188.165H272.278V177.227ZM356.348 245.636V140.636H367.683V152.767H369.075C369.937 151.441 371.13 149.751 372.655 147.696C374.213 145.608 376.433 143.752 379.317 142.128C382.233 140.471 386.178 139.642 391.149 139.642C397.579 139.642 403.247 141.25 408.152 144.464C413.057 147.679 416.885 152.237 419.636 158.136C422.387 164.036 423.763 170.996 423.763 179.017C423.763 187.104 422.387 194.114 419.636 200.047C416.885 205.946 413.074 210.52 408.202 213.768C403.33 216.983 397.712 218.591 391.348 218.591C386.443 218.591 382.515 217.779 379.565 216.155C376.616 214.498 374.345 212.625 372.754 210.537C371.163 208.416 369.937 206.659 369.075 205.267H368.081V245.636H356.348ZM367.882 178.818C367.882 184.585 368.727 189.673 370.418 194.081C372.108 198.456 374.577 201.886 377.825 204.372C381.073 206.825 385.051 208.051 389.757 208.051C394.662 208.051 398.756 206.759 402.037 204.173C405.351 201.555 407.837 198.042 409.494 193.634C411.185 189.192 412.03 184.254 412.03 178.818C412.03 173.449 411.201 168.61 409.544 164.301C407.92 159.959 405.451 156.529 402.136 154.01C398.855 151.458 394.729 150.182 389.757 150.182C384.984 150.182 380.974 151.392 377.726 153.811C374.478 156.197 372.025 159.545 370.368 163.854C368.711 168.129 367.882 173.117 367.882 178.818ZM441.661 245.636V140.636H452.996V152.767H454.388C455.25 151.441 456.443 149.751 457.967 147.696C459.525 145.608 461.746 143.752 464.629 142.128C467.546 140.471 471.49 139.642 476.462 139.642C482.892 139.642 488.559 141.25 493.464 144.464C498.37 147.679 502.198 152.237 504.949 158.136C507.7 164.036 509.075 170.996 509.075 179.017C509.075 187.104 507.7 194.114 504.949 200.047C502.198 205.946 498.386 210.52 493.514 213.768C488.642 216.983 483.024 218.591 476.661 218.591C471.755 218.591 467.828 217.779 464.878 216.155C461.928 214.498 459.658 212.625 458.067 210.537C456.476 208.416 455.25 206.659 454.388 205.267H453.393V245.636H441.661ZM453.195 178.818C453.195 184.585 454.04 189.673 455.73 194.081C457.42 198.456 459.89 201.886 463.138 204.372C466.386 206.825 470.363 208.051 475.07 208.051C479.975 208.051 484.068 206.759 487.349 204.173C490.664 201.555 493.15 198.042 494.807 193.634C496.497 189.192 497.342 184.254 497.342 178.818C497.342 173.449 496.514 168.61 494.857 164.301C493.232 159.959 490.763 156.529 487.449 154.01C484.168 151.458 480.041 150.182 475.07 150.182C470.297 150.182 466.286 151.392 463.038 153.811C459.79 156.197 457.338 159.545 455.68 163.854C454.023 168.129 453.195 173.117 453.195 178.818ZM623.621 140.636C623.024 135.598 620.605 131.688 616.362 128.903C612.12 126.119 606.916 124.727 600.751 124.727C596.244 124.727 592.3 125.456 588.919 126.915C585.571 128.373 582.953 130.378 581.064 132.93C579.208 135.482 578.28 138.383 578.28 141.631C578.28 144.348 578.926 146.685 580.219 148.641C581.545 150.563 583.235 152.17 585.29 153.463C587.345 154.723 589.499 155.767 591.753 156.595C594.007 157.391 596.078 158.037 597.967 158.534L608.308 161.318C610.96 162.014 613.91 162.975 617.158 164.202C620.439 165.428 623.571 167.102 626.554 169.223C629.57 171.311 632.056 173.996 634.011 177.277C635.967 180.558 636.945 184.585 636.945 189.358C636.945 194.86 635.503 199.831 632.619 204.273C629.769 208.714 625.593 212.244 620.091 214.862C614.622 217.481 607.977 218.79 600.155 218.79C592.863 218.79 586.549 217.613 581.213 215.26C575.91 212.907 571.734 209.625 568.685 205.416C565.669 201.207 563.962 196.318 563.564 190.75H576.291C576.623 194.595 577.915 197.777 580.169 200.295C582.456 202.781 585.339 204.637 588.82 205.864C592.333 207.057 596.111 207.653 600.155 207.653C604.861 207.653 609.087 206.891 612.832 205.366C616.578 203.809 619.544 201.654 621.732 198.903C623.919 196.119 625.013 192.871 625.013 189.159C625.013 185.778 624.068 183.027 622.179 180.906C620.29 178.785 617.804 177.062 614.722 175.736C611.639 174.41 608.308 173.25 604.729 172.256L592.2 168.676C584.246 166.389 577.948 163.125 573.308 158.882C568.668 154.64 566.348 149.088 566.348 142.227C566.348 136.527 567.889 131.555 570.972 127.312C574.087 123.037 578.263 119.723 583.5 117.369C588.77 114.983 594.653 113.79 601.149 113.79C607.712 113.79 613.545 114.966 618.649 117.32C623.753 119.64 627.797 122.821 630.78 126.865C633.796 130.909 635.387 135.499 635.553 140.636H623.621ZM688.836 140.636V150.58H649.262V140.636H688.836ZM660.796 122.341H672.529V195.125C672.529 198.439 673.009 200.925 673.971 202.582C674.965 204.206 676.224 205.3 677.749 205.864C679.307 206.394 680.947 206.659 682.671 206.659C683.963 206.659 685.024 206.593 685.853 206.46C686.681 206.295 687.344 206.162 687.841 206.062L690.228 216.602C689.432 216.901 688.322 217.199 686.897 217.497C685.471 217.829 683.665 217.994 681.478 217.994C678.163 217.994 674.915 217.282 671.733 215.857C668.585 214.431 665.966 212.26 663.878 209.344C661.823 206.427 660.796 202.748 660.796 198.307V122.341ZM736.687 218.591C729.793 218.591 723.744 216.95 718.541 213.669C713.37 210.388 709.327 205.797 706.41 199.898C703.527 193.998 702.085 187.104 702.085 179.216C702.085 171.261 703.527 164.318 706.41 158.385C709.327 152.452 713.37 147.845 718.541 144.564C723.744 141.283 729.793 139.642 736.687 139.642C743.581 139.642 749.613 141.283 754.784 144.564C759.987 147.845 764.031 152.452 766.914 158.385C769.831 164.318 771.289 171.261 771.289 179.216C771.289 187.104 769.831 193.998 766.914 199.898C764.031 205.797 759.987 210.388 754.784 213.669C749.613 216.95 743.581 218.591 736.687 218.591ZM736.687 208.051C741.924 208.051 746.233 206.709 749.613 204.024C752.994 201.339 755.496 197.81 757.12 193.435C758.744 189.06 759.556 184.32 759.556 179.216C759.556 174.112 758.744 169.356 757.12 164.947C755.496 160.539 752.994 156.976 749.613 154.259C746.233 151.541 741.924 150.182 736.687 150.182C731.45 150.182 727.142 151.541 723.761 154.259C720.38 156.976 717.878 160.539 716.254 164.947C714.63 169.356 713.818 174.112 713.818 179.216C713.818 184.32 714.63 189.06 716.254 193.435C717.878 197.81 720.38 201.339 723.761 204.024C727.142 206.709 731.45 208.051 736.687 208.051ZM789.2 217V140.636H800.535V152.17H801.33C802.722 148.392 805.241 145.326 808.887 142.973C812.533 140.62 816.643 139.443 821.217 139.443C822.078 139.443 823.156 139.46 824.448 139.493C825.741 139.526 826.719 139.576 827.381 139.642V151.574C826.984 151.474 826.072 151.325 824.647 151.126C823.255 150.894 821.78 150.778 820.222 150.778C816.51 150.778 813.196 151.557 810.279 153.115C807.396 154.64 805.109 156.761 803.418 159.479C801.761 162.163 800.933 165.229 800.933 168.676V217H789.2ZM870.982 218.591C863.624 218.591 857.277 216.967 851.941 213.719C846.638 210.438 842.545 205.864 839.661 199.997C836.811 194.098 835.386 187.237 835.386 179.415C835.386 171.593 836.811 164.699 839.661 158.733C842.545 152.734 846.555 148.061 851.692 144.713C856.863 141.332 862.895 139.642 869.789 139.642C873.766 139.642 877.694 140.305 881.572 141.631C885.45 142.956 888.979 145.111 892.161 148.094C895.343 151.044 897.879 154.955 899.768 159.827C901.657 164.699 902.602 170.698 902.602 177.824V182.795H843.738V172.653H890.67C890.67 168.345 889.808 164.5 888.085 161.119C886.394 157.739 883.975 155.071 880.826 153.115C877.71 151.16 874.031 150.182 869.789 150.182C865.116 150.182 861.072 151.342 857.658 153.662C854.278 155.949 851.676 158.932 849.853 162.611C848.03 166.29 847.119 170.234 847.119 174.443V181.205C847.119 186.972 848.113 191.86 850.102 195.871C852.123 199.848 854.924 202.881 858.504 204.969C862.083 207.024 866.243 208.051 870.982 208.051C874.065 208.051 876.849 207.62 879.335 206.759C881.853 205.864 884.024 204.538 885.847 202.781C887.67 200.991 889.079 198.771 890.073 196.119L901.408 199.301C900.215 203.146 898.21 206.527 895.393 209.443C892.576 212.327 889.095 214.58 884.952 216.205C880.809 217.795 876.153 218.591 870.982 218.591Z" fill="white"/>
<defs>
<clipPath id="clip0_168_140">
<rect width="224" height="224" fill="white" transform="translate(19 29)"/>
</clipPath>
</defs>
</svg>
