<svg width="2394" height="755" viewBox="0 0 2394 755" fill="none" xmlns="http://www.w3.org/2000/svg">
<path d="M158.659 129.29C176.764 57.8853 251.159 0 324.824 0H439.933L281.275 625.71C263.169 697.115 188.774 755 115.109 755H0L158.659 129.29Z" fill="white"/>
<path d="M473.725 129.29C491.831 57.8851 566.226 0 639.891 0H755L697.693 226.004C679.587 297.409 605.192 355.294 531.528 355.294H416.419L473.725 129.29Z" fill="white"/>
<path d="M839 250H933.636C946.83 250 959.304 251.194 971.059 253.581C982.813 255.968 993.008 260.146 1001.64 266.115C1010.52 271.844 1017.48 279.723 1022.51 289.75C1027.79 299.538 1030.43 311.952 1030.43 326.993C1030.43 341.795 1028.03 354.209 1023.23 364.236C1018.44 374.263 1011.84 382.261 1003.44 388.229C995.047 394.198 985.092 398.495 973.577 401.121C962.063 403.508 949.589 404.702 936.155 404.702H895.134V503.54H839V250ZM895.134 357.432H932.556C937.594 357.432 942.392 356.955 946.95 356C951.748 355.045 955.946 353.493 959.544 351.344C963.382 348.957 966.381 345.853 968.54 342.033C970.939 337.975 972.138 332.961 972.138 326.993C972.138 320.547 970.579 315.414 967.46 311.594C964.582 307.536 960.743 304.432 955.946 302.284C951.388 300.135 946.23 298.822 940.473 298.344C934.715 297.628 929.198 297.27 923.92 297.27H895.134V357.432Z" fill="white"/>
<path d="M1283.41 400.643C1283.41 415.684 1281.13 429.53 1276.58 442.184C1272.02 454.837 1265.18 465.819 1256.07 475.129C1247.19 484.44 1236.04 491.722 1222.6 496.974C1209.17 502.226 1193.7 504.852 1176.18 504.852C1158.43 504.852 1142.84 502.226 1129.41 496.974C1115.97 491.722 1104.7 484.44 1095.58 475.129C1086.71 465.819 1079.99 454.837 1075.43 442.184C1070.87 429.53 1068.59 415.684 1068.59 400.643V250H1124.73V398.495C1124.73 406.373 1125.93 413.654 1128.33 420.339C1130.96 427.024 1134.56 432.873 1139.12 437.886C1143.68 442.661 1149.08 446.481 1155.31 449.346C1161.79 451.972 1168.75 453.285 1176.18 453.285C1183.62 453.285 1190.46 451.972 1196.69 449.346C1202.93 446.481 1208.33 442.661 1212.89 437.886C1217.44 432.873 1220.92 427.024 1223.32 420.339C1225.96 413.654 1227.28 406.373 1227.28 398.495V250H1283.41V400.643Z" fill="white"/>
<path d="M1321.58 250H1416.21C1429.41 250 1441.88 251.194 1453.63 253.581C1465.39 255.968 1475.58 260.146 1484.22 266.115C1493.1 271.844 1500.05 279.723 1505.09 289.75C1510.37 299.538 1513.01 311.952 1513.01 326.993C1513.01 341.795 1510.61 354.209 1505.81 364.236C1501.01 374.263 1494.42 382.261 1486.02 388.229C1477.62 394.198 1467.67 398.495 1456.15 401.121C1444.64 403.508 1432.16 404.702 1418.73 404.702H1377.71V503.54H1321.58V250ZM1377.71 357.432H1415.13C1420.17 357.432 1424.97 356.955 1429.53 356C1434.32 355.045 1438.52 353.493 1442.12 351.344C1445.96 348.957 1448.96 345.853 1451.12 342.033C1453.51 337.975 1454.71 332.961 1454.71 326.993C1454.71 320.547 1453.15 315.414 1450.04 311.594C1447.16 307.536 1443.32 304.432 1438.52 302.284C1433.96 300.135 1428.81 298.822 1423.05 298.344C1417.29 297.628 1411.77 297.27 1406.5 297.27H1377.71V357.432Z" fill="white"/>
<path d="M1551.17 250H1649.76C1662.72 250 1674.95 251.313 1686.47 253.939C1698.22 256.327 1708.42 260.504 1717.05 266.473C1725.93 272.203 1732.88 280.081 1737.92 290.108C1743.2 299.896 1745.84 312.191 1745.84 326.993C1745.84 344.898 1741.16 360.177 1731.8 372.831C1722.45 385.245 1708.78 393.123 1690.78 396.466L1755.55 503.54H1688.27L1635.01 402.195H1607.3V503.54H1551.17V250ZM1607.3 354.925H1640.41C1645.45 354.925 1650.72 354.806 1656.24 354.567C1662 354.09 1667.15 353.015 1671.71 351.344C1676.27 349.434 1679.99 346.569 1682.87 342.75C1685.99 338.93 1687.55 333.558 1687.55 326.635C1687.55 320.189 1686.23 315.056 1683.59 311.236C1680.95 307.416 1677.59 304.552 1673.51 302.642C1669.43 300.493 1664.76 299.061 1659.48 298.344C1654.2 297.628 1649.04 297.27 1644.01 297.27H1607.3V354.925Z" fill="white"/>
<path d="M1793.72 250H1849.85V503.54H1793.72V250Z" fill="white"/>
<path d="M1888.01 250H1972.93L2031.59 415.445H2032.31L2091.32 250H2175.88V503.54H2119.75V309.088H2119.03L2052.1 503.54H2009.28L1944.87 309.088H1944.15V503.54H1888.01V250Z" fill="white"/>
<path d="M2214.04 250H2393.6V301.567H2270.18V348.837H2393.6V400.405H2270.18V451.972H2393.6V503.54H2214.04V250Z" fill="white"/>
</svg>
